<svg width="18" height="19" viewBox="0 0 18 19" fill="none" xmlns="http://www.w3.org/2000/svg">
<path d="M17.3333 15.6665H0.666664V13.9998H1.5V8.19234C1.5 4.03567 4.85833 0.666504 9 0.666504C13.1417 0.666504 16.5 4.03567 16.5 8.19234V13.9998H17.3333V15.6665ZM3.16666 13.9998H14.8333V8.19234C14.8333 4.9565 12.2217 2.33317 9 2.33317C5.77833 2.33317 3.16666 4.9565 3.16666 8.19234V13.9998ZM6.91666 16.4998H11.0833C11.0833 17.0524 10.8638 17.5823 10.4731 17.973C10.0824 18.3637 9.55253 18.5832 9 18.5832C8.44746 18.5832 7.91756 18.3637 7.52686 17.973C7.13616 17.5823 6.91666 17.0524 6.91666 16.4998Z" fill="#676767"/>
</svg>
