<svg width="20" height="20" viewBox="0 0 20 20" fill="none" xmlns="http://www.w3.org/2000/svg">
<path d="M3.76718 4.94469L1.16135 2.33969L2.34051 1.16052L18.8397 17.6605L17.6605 18.8389L14.9022 16.0805C13.4365 17.0102 11.7361 17.5025 10.0005 17.4997C5.50718 17.4997 1.76885 14.2664 0.98468 9.99969C1.34304 8.05862 2.31937 6.28544 3.76801 4.94469H3.76718ZM12.298 13.4764L11.078 12.2564C10.6114 12.4796 10.087 12.5526 9.57712 12.4653C9.06725 12.378 8.59702 12.1347 8.23124 11.769C7.86546 11.4032 7.62215 10.9329 7.53486 10.4231C7.44757 9.91321 7.52058 9.38882 7.74385 8.92219L6.52385 7.70219C5.99361 8.50343 5.75657 9.4633 5.85287 10.4193C5.94917 11.3752 6.37289 12.2685 7.05228 12.9479C7.73167 13.6273 8.62498 14.051 9.58094 14.1473C10.5369 14.2436 11.4968 14.0066 12.298 13.4764ZM6.64551 3.13302C7.68468 2.72469 8.81718 2.49969 10.0005 2.49969C14.4938 2.49969 18.2322 5.73302 19.0163 9.99969C18.761 11.3878 18.1871 12.6977 17.3397 13.8264L14.123 10.6097C14.2186 9.96603 14.162 9.30895 13.958 8.69107C13.7539 8.07319 13.4079 7.5117 12.9478 7.05158C12.4877 6.59146 11.9262 6.2455 11.3083 6.04142C10.6904 5.83734 10.0333 5.78081 9.38968 5.87636L6.64551 3.13386V3.13302Z" fill="#888888"/>
</svg>
