<svg width="21" height="20" viewBox="0 0 21 20" fill="none" xmlns="http://www.w3.org/2000/svg">
<path d="M4.17166 12.1023L7.00666 9.26734L9.36333 11.6248L11.9942 8.994L10.5 7.49984H14.6667V11.6665L13.1725 10.1723L9.36333 13.9815L7.00666 11.6248L4.94416 13.6865C5.88034 15.0956 7.31718 16.096 8.96352 16.4851C10.6099 16.8742 12.3426 16.6229 13.8105 15.7821C15.2784 14.9413 16.3718 13.5738 16.8691 11.9568C17.3664 10.3399 17.2303 8.59434 16.4885 7.07395C15.7467 5.55356 14.4547 4.37203 12.8742 3.76879C11.2937 3.16555 9.54299 3.18573 7.97682 3.82523C6.41065 4.46473 5.14616 5.67572 4.43961 7.2128C3.73305 8.74988 3.63726 10.4981 4.17166 12.1032V12.1023ZM2.89 13.4007L2.88166 13.3923L2.885 13.389C2.40994 12.3223 2.16517 11.1675 2.16666 9.99984C2.16666 5.39734 5.8975 1.6665 10.5 1.6665C15.1025 1.6665 18.8333 5.39734 18.8333 9.99984C18.8333 14.6023 15.1025 18.3332 10.5 18.3332C7.10833 18.3332 4.19166 16.3082 2.89 13.4007V13.4007Z" fill="#F7CB7A"/>
</svg>
