<svg width="67" height="18" viewBox="0 0 67 18" fill="none" xmlns="http://www.w3.org/2000/svg">
<path d="M6.50274 0.521039C5.84395 0.58564 4.85582 0.921761 4.46734 1.2134C4.40861 1.25751 4.35085 1.29357 4.33897 1.29357C4.29842 1.29357 3.8222 1.6262 3.56067 1.83718C2.88639 2.38112 2.06918 3.28171 1.67154 3.91901C0.848096 5.23877 0.402429 6.37053 0.156234 7.7671C0.0547703 8.34261 0.0461837 9.86999 0.140771 10.5175C0.346549 11.9265 0.71118 13.1909 1.30735 14.5629C1.63059 15.3067 2.25356 16.5178 2.31433 16.5205C2.3363 16.5215 2.28566 16.257 2.17641 15.8003C2.06894 15.351 1.97499 14.7245 1.91988 14.0897C1.85636 13.3581 1.87621 11.3753 1.95326 10.7523C2.10802 9.50117 2.42281 8.31091 2.89803 7.18012C2.96487 7.02103 3.3819 6.18518 3.52556 5.92231C3.89579 5.24484 5.09976 3.63608 5.17798 3.7143C5.18637 3.72269 5.08628 3.97012 4.95554 4.26412C4.1976 5.96863 3.79681 7.10482 3.50097 8.38762C3.28761 9.3127 3.10572 10.5263 3.01576 11.6244C2.99536 11.8734 2.96437 12.2508 2.94693 12.4629C2.92949 12.6751 2.90715 13.143 2.89729 13.5027C2.87726 14.2315 2.88125 14.2327 3.06426 13.553C3.23415 12.9222 3.47132 12.3145 3.88227 11.4575C4.00825 11.1948 4.39271 10.5068 4.57786 10.2128C5.22283 9.18856 6.1035 8.15655 7.04226 7.32492C7.58355 6.84538 8.51665 6.20976 9.14478 5.89269C9.45172 5.73773 9.98309 5.53236 10.316 5.43998C10.8207 5.29998 11.217 5.24618 11.8456 5.23233C12.4877 5.21814 12.8525 5.2705 13.1424 5.41842C13.3882 5.5438 13.6097 5.91463 13.6137 6.20742C13.6142 6.24431 13.6299 6.29714 13.6486 6.32481C13.677 6.36684 13.6994 6.35584 13.7848 6.25773C14.0456 5.95803 14.2643 5.54101 14.3212 5.23471C14.3717 4.96279 14.3426 4.57132 14.2548 4.34267C14.1181 3.98636 13.7389 3.64289 13.1856 3.37432C12.7062 3.14168 11.3136 2.63523 11.1532 2.63523C11.1018 2.63523 10.8683 2.70104 10.6344 2.78151C9.93012 3.02368 9.63724 3.08244 9.11899 3.08543C8.5144 3.08892 8.23651 2.99782 7.82764 2.662C7.71695 2.5711 7.5962 2.47192 7.5593 2.44157C7.4198 2.32682 7.04632 2.11618 6.78785 2.0065L6.51951 1.89259L6.8717 1.91006C7.24337 1.92848 7.78075 2.02427 8.10395 2.12966C8.32281 2.20104 8.39768 2.22774 8.86743 2.40202C9.28549 2.55708 9.46849 2.58267 9.82611 2.53615C10.0995 2.50056 10.7664 2.37029 10.7918 2.34748C10.8128 2.3287 10.3185 1.72297 10.1791 1.59662C9.46094 0.945844 8.37024 0.540561 7.24609 0.506852C6.99406 0.499271 6.65955 0.505677 6.50274 0.521039Z" fill="white" fill-opacity="0.5"/>
<path d="M13.0769 8.92764C11.4227 9.01756 9.84848 9.40923 8.49847 10.0668C6.00163 11.2829 4.15792 13.3036 3.2059 15.8674C2.81904 16.9093 2.61101 17.6578 2.79891 17.3318C2.91191 17.1358 3.42037 16.378 3.57902 16.1693C3.78902 15.8929 4.20179 15.399 4.39194 15.1966C4.47861 15.1043 4.5852 14.9901 4.62887 14.9428C5.11462 14.4162 6.25568 13.5201 6.88847 13.1683C6.99916 13.1067 7.135 13.0311 7.19035 13.0002C8.85652 12.0702 10.9059 11.5106 13.2841 11.3365C14.8786 11.2197 17.0642 11.3361 18.7454 11.6274C20.2097 11.881 21.7627 12.2223 22.6864 12.4935C22.8707 12.5476 23.024 12.5893 23.0269 12.5861C23.0335 12.5789 22.4473 12.0863 22.2377 11.9229C22.1054 11.8197 21.1098 11.1513 20.9089 11.0307C20.1028 10.5469 19.2499 10.1245 18.4194 9.79771C17.444 9.41386 16.0519 9.08039 14.9888 8.97591C14.6284 8.94052 13.4073 8.90966 13.0769 8.92764Z" fill="white" fill-opacity="0.5"/>
<path d="M11.7688 13.2014C12.2193 13.1194 12.4557 13.0885 13.1608 13.019C13.2345 13.0118 13.5881 13.0116 13.9464 13.0186C15.2592 13.0444 16.417 13.2773 17.823 13.7981C18.1967 13.9365 18.4277 14.03 18.6259 14.1231C18.7193 14.167 18.9391 14.2681 19.1144 14.3479C19.5247 14.5348 20.7939 15.1886 20.7777 15.2048C20.7708 15.2116 20.5032 15.1792 20.183 15.1327C16.6115 14.6142 13.7966 14.5829 11.0684 15.0314C10.0721 15.1952 9.35935 15.3597 8.26368 15.6786C7.89787 15.7851 6.80002 16.1771 6.41889 16.3373C5.58867 16.6863 4.78716 17.0827 4.20883 17.4306C4.0264 17.5404 3.87177 17.6248 3.8652 17.6182C3.84293 17.5959 4.50732 16.9418 4.84344 16.6551C6.57224 15.1804 8.15678 14.2735 10.1956 13.5918C10.6748 13.4315 11.1458 13.3147 11.7688 13.2014Z" fill="white" fill-opacity="0.5"/>
<path fill-rule="evenodd" clip-rule="evenodd" d="M25.3296 5.53541H29.314C30.3232 5.53541 31.14 5.84312 31.7644 6.45855C32.3935 7.07398 32.708 7.88399 32.708 8.88859C32.708 9.88866 32.3844 10.6987 31.7373 11.3186C31.0902 11.9341 30.2485 12.2418 29.2122 12.2418H27.3795V14.0406L25.3296 15.3302V5.53541ZM27.3795 7.1577V10.6398H28.7642C29.3525 10.6398 29.8096 10.4883 30.1354 10.1851C30.4612 9.88188 30.6241 9.45198 30.6241 8.89538C30.6241 8.33878 30.4612 7.91114 30.1354 7.61248C29.8141 7.30929 29.3593 7.1577 28.771 7.1577H27.3795Z" fill="white" fill-opacity="0.5"/>
<path d="M33.927 15.3302V8.05369H35.8412V9.36374H35.8819C36.0086 8.90217 36.2213 8.5492 36.52 8.30484C36.8187 8.06048 37.1829 7.9383 37.6128 7.9383C37.821 7.9383 38.0088 7.96318 38.1762 8.01296V9.75743C37.9907 9.6805 37.7509 9.64204 37.4567 9.64204C36.968 9.64204 36.5879 9.78458 36.3164 10.0697C36.0448 10.3548 35.9091 10.753 35.9091 11.2643V14.0406L33.927 15.3302Z" fill="white" fill-opacity="0.5"/>
<path d="M45.8845 15.3302V8.05369H43.9024V12.2214C43.9024 12.7056 43.7735 13.0925 43.5155 13.3821C43.2576 13.6717 42.9091 13.8165 42.4702 13.8165C42.0312 13.8165 41.6941 13.6898 41.4588 13.4364C41.228 13.183 41.1126 12.8142 41.1126 12.33V8.05369H39.1306V12.7441C39.1306 13.5858 39.3682 14.251 39.8433 14.7397C40.3185 15.2239 40.9543 15.466 41.7507 15.466C42.8232 15.466 43.5495 14.9841 43.9296 14.0202H43.9703V15.3302H45.8845Z" fill="white" fill-opacity="0.5"/>
<path fill-rule="evenodd" clip-rule="evenodd" d="M57.0925 13.1038H58.9117C58.803 13.8188 58.4456 14.3958 57.8392 14.8347C57.2373 15.2691 56.4884 15.4864 55.5924 15.4864C54.4747 15.4864 53.5968 15.1515 52.9587 14.4818C52.3252 13.812 52.0084 12.8934 52.0084 11.7259C52.0084 10.5629 52.3252 9.63525 52.9587 8.94289C53.5923 8.24601 54.4453 7.89757 55.5177 7.89757C56.5721 7.89757 57.4115 8.22791 58.036 8.88859C58.6605 9.54927 58.9727 10.434 58.9727 11.5426V12.1467H53.9565V12.2689C53.9565 12.7893 54.1081 13.2124 54.4113 13.5382C54.719 13.8595 55.1241 14.0202 55.6264 14.0202C55.9884 14.0202 56.3006 13.9387 56.5631 13.7758C56.8255 13.6084 57.002 13.3844 57.0925 13.1038ZM55.5381 9.36374C55.1082 9.36374 54.7485 9.51081 54.4588 9.80495C54.1738 10.0991 54.0131 10.4747 53.9769 10.9317H57.0654C57.0427 10.4656 56.8911 10.0878 56.6106 9.79816C56.3345 9.50854 55.9771 9.36374 55.5381 9.36374Z" fill="white" fill-opacity="0.5"/>
<path d="M60.1715 8.05369V15.3302H62.1535V11.1557C62.1535 10.6806 62.2847 10.2959 62.5472 10.0018C62.8142 9.70765 63.1672 9.56058 63.6061 9.56058C64.0451 9.56058 64.3777 9.68955 64.6039 9.94749C64.8302 10.2054 64.9433 10.5742 64.9433 11.0539V15.3302H66.9254V10.6398C66.9254 9.78458 66.7059 9.11711 66.2669 8.63744C65.828 8.15777 65.2058 7.91793 64.4003 7.91793C63.8482 7.91793 63.3799 8.04238 62.9952 8.29126C62.6151 8.53562 62.3255 8.88859 62.1264 9.35016H62.0856V8.05369H60.1715Z" fill="white" fill-opacity="0.5"/>
<path d="M53.3786 5.98451H49.7052L47.8978 7.27412H51.5712L53.3786 5.98451Z" fill="white" fill-opacity="0.5"/>
<path d="M47.9216 8.04788H49.8561V8.04964H51.3019V9.50902H49.9037V14.0026L47.9216 15.2922L47.9216 8.04788Z" fill="white" fill-opacity="0.5"/>
</svg>
