<svg width="69" height="20" viewBox="0 0 69 20" fill="none" xmlns="http://www.w3.org/2000/svg">
<path d="M7.50274 1.46025C6.84395 1.52485 5.85582 1.86097 5.46734 2.15261C5.40861 2.19672 5.35085 2.23278 5.33897 2.23278C5.29842 2.23278 4.8222 2.56541 4.56067 2.77639C3.88639 3.32033 3.06918 4.22092 2.67154 4.85821C1.8481 6.17798 1.40243 7.30974 1.15623 8.70631C1.05477 9.28182 1.04618 10.8092 1.14077 11.4567C1.34655 12.8657 1.71118 14.1302 2.30735 15.5021C2.63059 16.2459 3.25356 17.457 3.31433 17.4597C3.3363 17.4607 3.28566 17.1962 3.17641 16.7395C3.06894 16.2902 2.97499 15.6637 2.91988 15.0289C2.85636 14.2973 2.87621 12.3145 2.95326 11.6915C3.10802 10.4404 3.42281 9.25012 3.89803 8.11933C3.96487 7.96024 4.3819 7.12439 4.52556 6.86152C4.89579 6.18405 6.09976 4.57529 6.17798 4.65351C6.18637 4.6619 6.08628 4.90933 5.95554 5.20332C5.1976 6.90784 4.79681 8.04403 4.50097 9.32683C4.28761 10.2519 4.10572 11.4655 4.01576 12.5636C3.99536 12.8126 3.96437 13.19 3.94693 13.4021C3.92949 13.6143 3.90715 14.0822 3.89729 14.4419C3.87726 15.1707 3.88125 15.1719 4.06426 14.4922C4.23415 13.8614 4.47132 13.2537 4.88227 12.3967C5.00825 12.134 5.39271 11.446 5.57786 11.152C6.22283 10.1278 7.1035 9.09576 8.04226 8.26413C8.58355 7.78459 9.51665 7.14897 10.1448 6.8319C10.4517 6.67694 10.9831 6.47157 11.316 6.37919C11.8207 6.23919 12.217 6.18539 12.8456 6.17154C13.4877 6.15735 13.8525 6.20971 14.1424 6.35763C14.3882 6.483 14.6097 6.85384 14.6137 7.14662C14.6142 7.18352 14.6299 7.23635 14.6486 7.26402C14.677 7.30605 14.6994 7.29505 14.7848 7.19694C15.0456 6.89724 15.2643 6.48022 15.3212 6.17392C15.3717 5.902 15.3426 5.51053 15.2548 5.28188C15.1181 4.92557 14.7389 4.5821 14.1856 4.31353C13.7062 4.08089 12.3136 3.57444 12.1532 3.57444C12.1018 3.57444 11.8683 3.64025 11.6344 3.72072C10.9301 3.96289 10.6372 4.02165 10.119 4.02464C9.5144 4.02813 9.23651 3.93703 8.82764 3.60121C8.71695 3.51031 8.5962 3.41113 8.5593 3.38077C8.4198 3.26603 8.04632 3.05539 7.78785 2.94571L7.51951 2.8318L7.8717 2.84927C8.24337 2.86769 8.78075 2.96348 9.10395 3.06887C9.32281 3.14025 9.39768 3.16695 9.86743 3.34123C10.2855 3.49629 10.4685 3.52188 10.8261 3.47536C11.0995 3.43977 11.7664 3.3095 11.7918 3.28669C11.8128 3.26791 11.3185 2.66218 11.1791 2.53583C10.4609 1.88505 9.37024 1.47977 8.24609 1.44606C7.99406 1.43848 7.65955 1.44489 7.50274 1.46025Z" fill="#363636" fill-opacity="0.5"/>
<path d="M14.0769 9.86685C12.4227 9.95677 10.8485 10.3484 9.49847 11.006C7.00163 12.2221 5.15792 14.2428 4.2059 16.8066C3.81904 17.8485 3.61101 18.597 3.79891 18.271C3.91191 18.075 4.42037 17.3172 4.57902 17.1085C4.78902 16.8321 5.20179 16.3382 5.39194 16.1358C5.47861 16.0435 5.5852 15.9293 5.62887 15.882C6.11462 15.3554 7.25568 14.4593 7.88847 14.1075C7.99916 14.0459 8.135 13.9703 8.19035 13.9394C9.85652 13.0094 11.9059 12.4499 14.2841 12.2757C15.8786 12.1589 18.0642 12.2753 19.7454 12.5666C21.2097 12.8202 22.7627 13.1615 23.6864 13.4327C23.8707 13.4868 24.024 13.5285 24.0269 13.5253C24.0335 13.5181 23.4473 13.0255 23.2377 12.8621C23.1054 12.7589 22.1098 12.0905 21.9089 11.9699C21.1028 11.4861 20.2499 11.0637 19.4194 10.7369C18.444 10.3531 17.0519 10.0196 15.9888 9.91512C15.6284 9.87973 14.4073 9.84887 14.0769 9.86685Z" fill="#363636" fill-opacity="0.5"/>
<path d="M12.7688 14.1406C13.2193 14.0586 13.4557 14.0277 14.1608 13.9583C14.2345 13.951 14.5881 13.9508 14.9464 13.9579C16.2592 13.9836 17.417 14.2165 18.823 14.7373C19.1967 14.8757 19.4277 14.9692 19.6259 15.0623C19.7193 15.1062 19.9391 15.2073 20.1144 15.2871C20.5247 15.474 21.7939 16.1278 21.7777 16.144C21.7708 16.1508 21.5032 16.1184 21.183 16.0719C17.6115 15.5534 14.7966 15.5221 12.0684 15.9706C11.0721 16.1344 10.3593 16.2989 9.26368 16.6178C8.89787 16.7243 7.80002 17.1163 7.41889 17.2765C6.58867 17.6255 5.78716 18.022 5.20883 18.3698C5.0264 18.4796 4.87177 18.564 4.8652 18.5574C4.84293 18.5351 5.50732 17.881 5.84344 17.5943C7.57224 16.1196 9.15678 15.2127 11.1956 14.531C11.6748 14.3708 12.1458 14.2539 12.7688 14.1406Z" fill="#363636" fill-opacity="0.5"/>
<path fill-rule="evenodd" clip-rule="evenodd" d="M26.3296 6.47462H30.314C31.3232 6.47462 32.14 6.78233 32.7644 7.39776C33.3935 8.01319 33.708 8.8232 33.708 9.8278C33.708 10.8279 33.3844 11.6379 32.7373 12.2578C32.0902 12.8733 31.2485 13.181 30.2122 13.181H28.3795V14.9798L26.3296 16.2694V6.47462ZM28.3795 8.09691V11.5791H29.7642C30.3525 11.5791 30.8096 11.4275 31.1354 11.1243C31.4612 10.8211 31.6241 10.3912 31.6241 9.83459C31.6241 9.27799 31.4612 8.85035 31.1354 8.55169C30.8141 8.2485 30.3593 8.09691 29.771 8.09691H28.3795Z" fill="#363636" fill-opacity="0.5"/>
<path d="M34.927 16.2694V8.9929H36.8412V10.3029H36.8819C37.0086 9.84137 37.2213 9.48841 37.52 9.24405C37.8187 8.99969 38.1829 8.8775 38.6128 8.8775C38.821 8.8775 39.0088 8.90239 39.1762 8.95217V10.6966C38.9907 10.6197 38.7509 10.5812 38.4567 10.5812C37.968 10.5812 37.5879 10.7238 37.3164 11.0089C37.0448 11.294 36.9091 11.6922 36.9091 12.2035V14.9798L34.927 16.2694Z" fill="#363636" fill-opacity="0.5"/>
<path d="M46.8845 16.2694V8.9929H44.9024V13.1606C44.9024 13.6448 44.7735 14.0317 44.5155 14.3213C44.2576 14.6109 43.9091 14.7558 43.4702 14.7558C43.0312 14.7558 42.6941 14.6291 42.4588 14.3756C42.228 14.1222 42.1126 13.7534 42.1126 13.2692V8.9929H40.1306V13.6833C40.1306 14.525 40.3682 15.1902 40.8433 15.6789C41.3185 16.1631 41.9543 16.4052 42.7507 16.4052C43.8232 16.4052 44.5495 15.9233 44.9296 14.9594H44.9703V16.2694H46.8845Z" fill="#363636" fill-opacity="0.5"/>
<path fill-rule="evenodd" clip-rule="evenodd" d="M58.0925 14.043H59.9117C59.803 14.758 59.4456 15.335 58.8392 15.7739C58.2373 16.2083 57.4884 16.4256 56.5924 16.4256C55.4747 16.4256 54.5968 16.0907 53.9587 15.421C53.3252 14.7512 53.0084 13.8326 53.0084 12.6651C53.0084 11.5021 53.3252 10.5745 53.9587 9.8821C54.5923 9.18522 55.4453 8.83678 56.5177 8.83678C57.5721 8.83678 58.4115 9.16712 59.036 9.8278C59.6605 10.4885 59.9727 11.3732 59.9727 12.4818V13.086H54.9565V13.2081C54.9565 13.7285 55.1081 14.1516 55.4113 14.4775C55.719 14.7987 56.1241 14.9594 56.6264 14.9594C56.9884 14.9594 57.3006 14.8779 57.5631 14.715C57.8255 14.5476 58.002 14.3236 58.0925 14.043ZM56.5381 10.3029C56.1082 10.3029 55.7485 10.45 55.4588 10.7442C55.1738 11.0383 55.0131 11.4139 54.9769 11.8709H58.0654C58.0427 11.4048 57.8911 11.027 57.6106 10.7374C57.3345 10.4478 56.9771 10.3029 56.5381 10.3029Z" fill="#363636" fill-opacity="0.5"/>
<path d="M61.1715 8.9929V16.2694H63.1535V12.0949C63.1535 11.6198 63.2847 11.2351 63.5472 10.941C63.8142 10.6469 64.1672 10.4998 64.6061 10.4998C65.0451 10.4998 65.3777 10.6288 65.6039 10.8867C65.8302 11.1446 65.9433 11.5134 65.9433 11.9931V16.2694H67.9254V11.5791C67.9254 10.7238 67.7059 10.0563 67.2669 9.57665C66.828 9.09698 66.2058 8.85714 65.4003 8.85714C64.8482 8.85714 64.3799 8.98158 63.9952 9.23047C63.6151 9.47483 63.3255 9.8278 63.1264 10.2894H63.0856V8.9929H61.1715Z" fill="#363636" fill-opacity="0.5"/>
<path d="M54.3786 6.92372H50.7052L48.8978 8.21333H52.5712L54.3786 6.92372Z" fill="#363636" fill-opacity="0.5"/>
<path d="M48.9216 8.98709H50.8561V8.98885H52.3019V10.4482H50.9037V14.9418L48.9216 16.2314L48.9216 8.98709Z" fill="#363636" fill-opacity="0.5"/>
</svg>
