<svg width="20" height="20" viewBox="0 0 20 20" fill="none" xmlns="http://www.w3.org/2000/svg">
<path d="M10.8827 6.7582L12.0619 7.93737C12.6036 8.47905 13.0334 9.12214 13.3266 9.82991C13.6197 10.5377 13.7706 11.2963 13.7706 12.0624C13.7706 12.8285 13.6197 13.5871 13.3266 14.2948C13.0334 15.0026 12.6036 15.6457 12.0619 16.1874L11.7669 16.4815C10.6729 17.5756 9.18906 18.1902 7.64189 18.1902C6.09471 18.1902 4.61091 17.5756 3.51689 16.4815C2.42287 15.3875 1.80826 13.9037 1.80826 12.3565C1.80826 10.8094 2.42287 9.32555 3.51689 8.23153L4.69606 9.4107C4.30636 9.79699 3.99681 10.2565 3.78516 10.7627C3.57352 11.269 3.46395 11.812 3.46275 12.3607C3.46154 12.9094 3.56873 13.453 3.77816 13.9602C3.98759 14.4673 4.29513 14.9281 4.68312 15.3161C5.07112 15.7041 5.53193 16.0117 6.0391 16.2211C6.54628 16.4305 7.08982 16.5377 7.63853 16.5365C8.18723 16.5353 8.7303 16.4257 9.23655 16.2141C9.7428 16.0024 10.2023 15.6929 10.5886 15.3032L10.8836 15.0082C11.6647 14.2268 12.1035 13.1672 12.1035 12.0624C12.1035 10.9575 11.6647 9.8979 10.8836 9.11653L9.70439 7.93737L10.8836 6.75903L10.8827 6.7582ZM16.4811 11.7674L15.3027 10.589C15.6924 10.2027 16.002 9.74328 16.2136 9.23703C16.4253 8.73078 16.5348 8.18771 16.536 7.63901C16.5372 7.0903 16.43 6.54675 16.2206 6.03958C16.0112 5.53241 15.7037 5.0716 15.3157 4.6836C14.9277 4.29561 14.4668 3.98807 13.9597 3.77864C13.4525 3.56921 12.909 3.46202 12.3603 3.46322C11.8115 3.46443 11.2685 3.574 10.7622 3.78564C10.256 3.99729 9.79652 4.30684 9.41022 4.69653L9.11522 4.99153C8.33409 5.7729 7.89528 6.83252 7.89528 7.93737C7.89528 9.04222 8.33409 10.1018 9.11522 10.8832L10.2944 12.0624L9.11522 13.2407L7.93689 12.0624C7.39515 11.5207 6.96542 10.8776 6.67223 10.1698C6.37904 9.46205 6.22814 8.70346 6.22814 7.93737C6.22814 7.17127 6.37904 6.41268 6.67223 5.70491C6.96542 4.99714 7.39515 4.35405 7.93689 3.81237L8.23189 3.5182C9.32591 2.42418 10.8097 1.80957 12.3569 1.80957C13.9041 1.80957 15.3879 2.42418 16.4819 3.5182C17.5759 4.61222 18.1905 6.09603 18.1905 7.6432C18.1905 9.19038 17.5759 10.6742 16.4819 11.7682L16.4811 11.7674Z" fill="#676767"/>
</svg>
