<svg width="20" height="20" viewBox="0 0 20 20" fill="none" xmlns="http://www.w3.org/2000/svg">
<path d="M6.66668 5.83317C5.56161 5.83317 4.5018 6.27216 3.7204 7.05356C2.939 7.83496 2.50001 8.89477 2.50001 9.99984C2.50001 11.1049 2.939 12.1647 3.7204 12.9461C4.5018 13.7275 5.56161 14.1665 6.66668 14.1665H13.3333C14.4384 14.1665 15.4982 13.7275 16.2796 12.9461C17.061 12.1647 17.5 11.1049 17.5 9.99984C17.5 8.89477 17.061 7.83496 16.2796 7.05356C15.4982 6.27216 14.4384 5.83317 13.3333 5.83317H6.66668ZM6.66668 4.1665H13.3333C14.8804 4.1665 16.3642 4.78109 17.4581 5.87505C18.5521 6.96901 19.1667 8.45274 19.1667 9.99984C19.1667 11.5469 18.5521 13.0307 17.4581 14.1246C16.3642 15.2186 14.8804 15.8332 13.3333 15.8332H6.66668C5.11958 15.8332 3.63585 15.2186 2.54189 14.1246C1.44792 13.0307 0.833344 11.5469 0.833344 9.99984C0.833344 8.45274 1.44792 6.96901 2.54189 5.87505C3.63585 4.78109 5.11958 4.1665 6.66668 4.1665ZM6.66668 12.4998C6.00363 12.4998 5.36775 12.2364 4.89891 11.7676C4.43007 11.2988 4.16668 10.6629 4.16668 9.99984C4.16668 9.3368 4.43007 8.70091 4.89891 8.23207C5.36775 7.76323 6.00363 7.49984 6.66668 7.49984C7.32972 7.49984 7.9656 7.76323 8.43444 8.23207C8.90328 8.70091 9.16668 9.3368 9.16668 9.99984C9.16668 10.6629 8.90328 11.2988 8.43444 11.7676C7.9656 12.2364 7.32972 12.4998 6.66668 12.4998Z" fill="#676767"/>
</svg>
