<svg width="25" height="24" viewBox="0 0 25 24" fill="none" xmlns="http://www.w3.org/2000/svg">
<path d="M6.00012 7.5L2.91434 10.5858C2.13329 11.3668 2.13329 12.6332 2.91434 13.4142L6.00012 16.5M6.00012 7.5L11.0859 2.41421C11.867 1.63317 13.1333 1.63317 13.9143 2.41421L19.0001 7.5M6.00012 7.5L7.74865 7.5C8.2331 7.5 8.70108 7.67584 9.06566 7.99485L11.1831 9.84762C11.9372 10.5074 13.0631 10.5074 13.8171 9.84762L15.9346 7.99485C16.2992 7.67584 16.7671 7.5 17.2516 7.5L19.0001 7.5M19.0001 7.5L22.0859 10.5858C22.867 11.3668 22.867 12.6332 22.0859 13.4142L19.0001 16.5M6.00012 16.5L11.0859 21.5858C11.867 22.3668 13.1333 22.3668 13.9143 21.5858L19.0001 16.5M6.00012 16.5H7.92653C8.30137 16.5 8.66866 16.3947 8.98653 16.196L11.4401 14.6625C12.0887 14.2572 12.9116 14.2572 13.5601 14.6625L16.0137 16.196C16.3316 16.3947 16.6989 16.5 17.0737 16.5H19.0001" stroke="#363636" stroke-width="2"/>
</svg>
