<svg width="20" height="20" viewBox="0 0 20 20" fill="none" xmlns="http://www.w3.org/2000/svg">
<path d="M5.41667 1.6665H14.5833C14.7127 1.6665 14.8403 1.69662 14.956 1.75448C15.0717 1.81234 15.1724 1.89634 15.25 1.99984L17.5 4.99984V17.4998C17.5 17.7209 17.4122 17.9328 17.2559 18.0891C17.0996 18.2454 16.8877 18.3332 16.6667 18.3332H3.33333C3.11232 18.3332 2.90036 18.2454 2.74408 18.0891C2.5878 17.9328 2.5 17.7209 2.5 17.4998V4.99984L4.75 1.99984C4.82762 1.89634 4.92828 1.81234 5.04399 1.75448C5.1597 1.69662 5.2873 1.6665 5.41667 1.6665ZM15.8333 6.6665H4.16667V16.6665H15.8333V6.6665ZM15.4167 4.99984L14.1667 3.33317H5.83333L4.58333 4.99984H15.4167ZM7.5 8.33317V9.99984C7.5 10.6629 7.76339 11.2988 8.23223 11.7676C8.70107 12.2364 9.33696 12.4998 10 12.4998C10.663 12.4998 11.2989 12.2364 11.7678 11.7676C12.2366 11.2988 12.5 10.6629 12.5 9.99984V8.33317H14.1667V9.99984C14.1667 11.1049 13.7277 12.1647 12.9463 12.9461C12.1649 13.7275 11.1051 14.1665 10 14.1665C8.89493 14.1665 7.83512 13.7275 7.05372 12.9461C6.27232 12.1647 5.83333 11.1049 5.83333 9.99984V8.33317H7.5Z" fill="#676767"/>
</svg>
