<svg width="20" height="20" viewBox="0 0 20 20" fill="none" xmlns="http://www.w3.org/2000/svg">
<path d="M17.5 11.0348V16.6665H18.3333V18.3332H1.66668V16.6665H2.50001V11.0348C1.98699 10.6924 1.56644 10.2286 1.27569 9.68464C0.984949 9.14066 0.833004 8.53331 0.833344 7.9165C0.833344 7.22734 1.02001 6.56317 1.36084 5.99734L3.62084 2.08317C3.69398 1.95649 3.79918 1.85129 3.92586 1.77815C4.05253 1.70501 4.19623 1.66651 4.34251 1.6665H15.6583C15.8046 1.66651 15.9483 1.70501 16.075 1.77815C16.2017 1.85129 16.3069 1.95649 16.38 2.08317L18.6317 5.98484C19.1288 6.81056 19.2886 7.79612 19.0779 8.73662C18.8671 9.67713 18.302 10.5002 17.5 11.0348ZM15.8333 11.6432C15.2604 11.7074 14.6803 11.6386 14.1383 11.442C13.5963 11.2455 13.1069 10.9265 12.7083 10.5098C12.3585 10.8757 11.9382 11.1669 11.4727 11.3659C11.0072 11.5648 10.5062 11.6674 10 11.6673C9.49391 11.6676 8.99301 11.5653 8.52753 11.3666C8.06205 11.168 7.64165 10.8771 7.29168 10.5115C6.89303 10.928 6.40366 11.2468 5.86164 11.4433C5.31962 11.6397 4.73958 11.7084 4.16668 11.644V16.6665H15.8333V11.644V11.6432ZM4.82418 3.33317L2.79668 6.844C2.59966 7.33079 2.59374 7.87403 2.78012 8.36499C2.9665 8.85595 3.33141 9.25841 3.80183 9.49183C4.27225 9.72525 4.81346 9.7724 5.31716 9.62385C5.82086 9.4753 6.24987 9.142 6.51834 8.69067C6.79751 7.99317 7.78501 7.99317 8.06501 8.69067C8.21943 9.07768 8.48634 9.4095 8.83128 9.64326C9.17622 9.87701 9.58333 10.002 10 10.002C10.4167 10.002 10.8238 9.87701 11.1687 9.64326C11.5137 9.4095 11.7806 9.07768 11.935 8.69067C12.2142 7.99317 13.2017 7.99317 13.4817 8.69067C13.5898 8.95688 13.7519 9.19784 13.9576 9.3984C14.1634 9.59896 14.4084 9.7548 14.6773 9.8561C14.9462 9.95741 15.2331 10.002 15.5201 9.98707C15.807 9.97215 16.0878 9.89802 16.3447 9.76936C16.6016 9.6407 16.8291 9.46028 17.013 9.23945C17.1968 9.01862 17.333 8.76214 17.4129 8.48615C17.4928 8.21016 17.5148 7.92061 17.4775 7.63571C17.4401 7.35082 17.3442 7.07673 17.1958 6.83067L15.175 3.33317H4.82501H4.82418Z" fill="#676767"/>
</svg>
