<svg width="20" height="20" viewBox="0 0 20 20" fill="none" xmlns="http://www.w3.org/2000/svg">
<path d="M14.1665 5.00033H18.3332V6.66699H16.6665V17.5003C16.6665 17.7213 16.5787 17.9333 16.4224 18.0896C16.2661 18.2459 16.0542 18.3337 15.8332 18.3337H4.1665C3.94549 18.3337 3.73353 18.2459 3.57725 18.0896C3.42097 17.9333 3.33317 17.7213 3.33317 17.5003V6.66699H1.6665V5.00033H5.83317V2.50033C5.83317 2.27931 5.92097 2.06735 6.07725 1.91107C6.23353 1.75479 6.44549 1.66699 6.6665 1.66699H13.3332C13.5542 1.66699 13.7661 1.75479 13.9224 1.91107C14.0787 2.06735 14.1665 2.27931 14.1665 2.50033V5.00033ZM14.9998 6.66699H4.99984V16.667H14.9998V6.66699ZM11.1782 11.667L12.6515 13.1403L11.4732 14.3187L9.99984 12.8453L8.5265 14.3187L7.34817 13.1403L8.8215 11.667L7.34817 10.1937L8.5265 9.01533L9.99984 10.4887L11.4732 9.01533L12.6515 10.1937L11.1782 11.667ZM7.49984 3.33366V5.00033H12.4998V3.33366H7.49984Z" fill="#DE5C55"/>
</svg>
