<svg width="20" height="20" viewBox="0 0 20 20" fill="none" xmlns="http://www.w3.org/2000/svg">
<path d="M16.6666 18.3334H3.33331V16.6667C3.33331 15.5616 3.7723 14.5018 4.5537 13.7204C5.3351 12.939 6.39491 12.5 7.49998 12.5H12.5C13.605 12.5 14.6649 12.939 15.4463 13.7204C16.2277 14.5018 16.6666 15.5616 16.6666 16.6667V18.3334ZM9.99998 10.8334C9.34337 10.8334 8.69319 10.704 8.08656 10.4528C7.47993 10.2015 6.92874 9.8332 6.46445 9.36891C6.00015 8.90461 5.63186 8.35342 5.38058 7.74679C5.12931 7.14016 4.99998 6.48998 4.99998 5.83337C4.99998 5.17676 5.12931 4.52658 5.38058 3.91996C5.63186 3.31333 6.00015 2.76213 6.46445 2.29784C6.92874 1.83355 7.47993 1.46525 8.08656 1.21398C8.69319 0.962703 9.34337 0.833374 9.99998 0.833374C11.3261 0.833374 12.5978 1.36016 13.5355 2.29784C14.4732 3.23552 15 4.50729 15 5.83337C15 7.15946 14.4732 8.43123 13.5355 9.36891C12.5978 10.3066 11.3261 10.8334 9.99998 10.8334Z" fill="#888888"/>
</svg>
