<svg width="20" height="20" viewBox="0 0 20 20" fill="none" xmlns="http://www.w3.org/2000/svg">
<path d="M16.6667 18.3335H15V16.6668C15 16.0038 14.7366 15.3679 14.2678 14.8991C13.7989 14.4302 13.1631 14.1668 12.5 14.1668H7.50001C6.83697 14.1668 6.20108 14.4302 5.73224 14.8991C5.2634 15.3679 5.00001 16.0038 5.00001 16.6668V18.3335H3.33334V16.6668C3.33334 15.5618 3.77233 14.502 4.55373 13.7206C5.33513 12.9391 6.39494 12.5002 7.50001 12.5002H12.5C13.6051 12.5002 14.6649 12.9391 15.4463 13.7206C16.2277 14.502 16.6667 15.5618 16.6667 16.6668V18.3335ZM10 10.8335C9.3434 10.8335 8.69322 10.7042 8.08659 10.4529C7.47996 10.2016 6.92877 9.83332 6.46448 9.36903C6.00018 8.90474 5.63189 8.35354 5.38061 7.74691C5.12934 7.14029 5.00001 6.49011 5.00001 5.8335C5.00001 5.17689 5.12934 4.52671 5.38061 3.92008C5.63189 3.31345 6.00018 2.76226 6.46448 2.29796C6.92877 1.83367 7.47996 1.46537 8.08659 1.2141C8.69322 0.962825 9.3434 0.833496 10 0.833496C11.3261 0.833496 12.5979 1.36028 13.5355 2.29796C14.4732 3.23564 15 4.50741 15 5.8335C15 7.15958 14.4732 8.43135 13.5355 9.36903C12.5979 10.3067 11.3261 10.8335 10 10.8335ZM10 9.16683C10.8841 9.16683 11.7319 8.81564 12.357 8.19052C12.9822 7.5654 13.3333 6.71755 13.3333 5.8335C13.3333 4.94944 12.9822 4.10159 12.357 3.47647C11.7319 2.85135 10.8841 2.50016 10 2.50016C9.11595 2.50016 8.26811 2.85135 7.64299 3.47647C7.01787 4.10159 6.66668 4.94944 6.66668 5.8335C6.66668 6.71755 7.01787 7.5654 7.64299 8.19052C8.26811 8.81564 9.11595 9.16683 10 9.16683Z" fill="#676767"/>
</svg>
