<svg width="20" height="20" viewBox="0 0 20 20" fill="none" xmlns="http://www.w3.org/2000/svg">
<path d="M15 5.83333H17.5C17.721 5.83333 17.933 5.92113 18.0893 6.07741C18.2455 6.23369 18.3333 6.44565 18.3333 6.66667V16.6667C18.3333 16.8877 18.2455 17.0996 18.0893 17.2559C17.933 17.4122 17.721 17.5 17.5 17.5H2.5C2.27899 17.5 2.06702 17.4122 1.91074 17.2559C1.75446 17.0996 1.66667 16.8877 1.66667 16.6667V3.33333C1.66667 3.11232 1.75446 2.90036 1.91074 2.74408C2.06702 2.5878 2.27899 2.5 2.5 2.5H15V5.83333ZM3.33333 7.5V15.8333H16.6667V7.5H3.33333ZM3.33333 4.16667V5.83333H13.3333V4.16667H3.33333ZM12.5 10.8333H15V12.5H12.5V10.8333Z" fill="#676767"/>
</svg>
