<svg width="16" height="16" viewBox="0 0 16 16" fill="none" xmlns="http://www.w3.org/2000/svg">
<path d="M8 14.6668C4.318 14.6668 1.33333 11.6822 1.33333 8.00016C1.33333 4.31816 4.318 1.3335 8 1.3335C11.682 1.3335 14.6667 4.31816 14.6667 8.00016C14.6667 11.6822 11.682 14.6668 8 14.6668ZM5.66667 9.3335V10.6668H7.33333V12.0002H8.66667V10.6668H9.33333C9.77536 10.6668 10.1993 10.4912 10.5118 10.1787C10.8244 9.86611 11 9.44219 11 9.00016C11 8.55814 10.8244 8.13421 10.5118 7.82165C10.1993 7.50909 9.77536 7.3335 9.33333 7.3335H6.66667C6.57826 7.3335 6.49347 7.29838 6.43096 7.23587C6.36845 7.17335 6.33333 7.08857 6.33333 7.00016C6.33333 6.91176 6.36845 6.82697 6.43096 6.76446C6.49347 6.70195 6.57826 6.66683 6.66667 6.66683H10.3333V5.3335H8.66667V4.00016H7.33333V5.3335H6.66667C6.22464 5.3335 5.80071 5.50909 5.48815 5.82165C5.17559 6.13421 5 6.55814 5 7.00016C5 7.44219 5.17559 7.86611 5.48815 8.17867C5.80071 8.49123 6.22464 8.66683 6.66667 8.66683H9.33333C9.42174 8.66683 9.50652 8.70195 9.56903 8.76446C9.63155 8.82697 9.66667 8.91176 9.66667 9.00016C9.66667 9.08857 9.63155 9.17335 9.56903 9.23587C9.50652 9.29838 9.42174 9.3335 9.33333 9.3335H5.66667Z" fill="#676767"/>
</svg>
